<?xml version="1.0" encoding="UTF-8"?>
<svg xmlns="http://www.w3.org/2000/svg" id="Layer_1" data-name="Layer 1" viewBox="0 0 208.22 111.8">
  <defs>
    <style>.cls-1{fill:#0193cc;}.cls-1,.cls-10,.cls-11,.cls-12,.cls-13,.cls-14,.cls-15,.cls-16,.cls-17,.cls-2,.cls-3,.cls-4,.cls-5,.cls-6,.cls-7,.cls-8,.cls-9{fill-rule:evenodd;}.cls-2{fill:#47a5af;}.cls-3{fill:#439ca8;}.cls-4{fill:#3a94a2;}.cls-5{fill:#348d9e;}.cls-6{fill:#2f879a;}.cls-7{fill:#257f95;}.cls-8{fill:#1f7990;}.cls-9{fill:#1a718b;}.cls-10{fill:#0e6b85;}.cls-11{fill:#046480;}.cls-12{fill:#005e7b;}.cls-13{fill:#005876;}.cls-14{fill:#005372;}.cls-15{fill:#004d6e;}.cls-16{fill:#6d6f71;}</style>
  </defs>
  <path class="cls-1" d="M68.52,59.82V28.39h3.62V59.82Zm27.41,0h-3.6V48.39c0-4.14-1.46-6-4-5.92l-6,.05-.06,17.3H78.63V39.22h3.62l7.21,0a5.5,5.5,0,0,1,4.72,2.11q1.75,2.12,1.75,6.17V59.82Zm4.91-4.34a10,10,0,0,0,5.9,1.94q4.24,0,4.25-2.72a2.39,2.39,0,0,0-.93-1.92A14.1,14.1,0,0,0,106.3,51c-2.27-.9-3.74-1.79-4.43-2.67a5.11,5.11,0,0,1-1-3.19,5,5,0,0,1,2.3-4.27,9.63,9.63,0,0,1,5.68-1.61,12.86,12.86,0,0,1,4.84.89v3.43a9.59,9.59,0,0,0-5.2-1.46,5,5,0,0,0-2.83.75,2.27,2.27,0,0,0-1.09,2,2.36,2.36,0,0,0,.78,1.88,14.1,14.1,0,0,0,3.5,1.72,11.81,11.81,0,0,1,4.62,2.6,4.82,4.82,0,0,1,1.21,3.33,5,5,0,0,1-2.31,4.35,10.27,10.27,0,0,1-6,1.59,12.26,12.26,0,0,1-5.55-1.18V55.48Zm22.32,1.84.24,26.54h-3.63l-.24-44.61h10.23A8.61,8.61,0,0,1,136.42,42a11,11,0,0,1,2.23,7.23,12.15,12.15,0,0,1-2.52,8.06,8.35,8.35,0,0,1-6.8,3c-2.64,0-4.66-.77-6.09-3Zm0-5.79a5.78,5.78,0,0,0,1.61,4.14,5.41,5.41,0,0,0,4,1.68,5.3,5.3,0,0,0,4.51-2.19,9.82,9.82,0,0,0,1.63-6A7.86,7.86,0,0,0,133.42,44c-1-1.23-2.72-1.55-4.47-1.56-2.81,0-4.22.05-5.76.1,0,1.08,0,2.72,0,6.28v2.67ZM143.3,34.16a2.14,2.14,0,0,1,.66-1.59,2.22,2.22,0,0,1,1.62-.64,2.35,2.35,0,0,1,1.66.63,2.11,2.11,0,0,1,.67,1.6,2.09,2.09,0,0,1-.67,1.58,2.39,2.39,0,0,1-1.66.62,2.27,2.27,0,0,1-1.63-.62,2.14,2.14,0,0,1-.65-1.58Zm.43,25.66V39.25h3.62V59.82Zm21.09-16.58a4.36,4.36,0,0,0-2.5-.63,4.08,4.08,0,0,0-3.48,1.94,8.57,8.57,0,0,0-1.37,5.09V59.82h-3.63V39.25h3.63v4.56h.07q1.56-4.44,5.36-4.44a5.33,5.33,0,0,1,1.92.28v3.59ZM185,50.67H170.67a7.14,7.14,0,0,0,1.79,5,6.33,6.33,0,0,0,4.76,1.75,10.26,10.26,0,0,0,6.31-2.16v3.17a12.26,12.26,0,0,1-7.16,1.88,8.88,8.88,0,0,1-6.94-2.76q-2.49-2.76-2.49-7.67a10.89,10.89,0,0,1,2.73-7.62,8.84,8.84,0,0,1,6.79-3,7.94,7.94,0,0,1,6.27,2.53q2.27,2.53,2.26,7.1v1.79Zm-3.63-2.85a6.27,6.27,0,0,0-1.31-4.21,4.6,4.6,0,0,0-3.65-1.5,5.13,5.13,0,0,0-3.75,1.59,7.28,7.28,0,0,0-2,4.12Z" transform="translate(-0.77 -0.98)"></path>
  <path class="cls-2" d="M13.37,19.4,32.06,37.24A6.16,6.16,0,0,0,36.14,39a6,6,0,0,0,4.07-1.53C43.15,34.92,64.06,4.7,66.44,1.26c.34-.51.69-.26.36.22C64.51,4.79,43.48,35.2,40.49,37.79a6.39,6.39,0,0,1-4.37,1.62,6.67,6.67,0,0,1-4.36-1.87L13.07,19.7C12.52,19.18,12.81,18.87,13.37,19.4Z" transform="translate(-0.77 -0.98)"></path>
  <path class="cls-3" d="M15.17,21.84,32.8,38.75a5.59,5.59,0,0,0,4.32,1.61,6.62,6.62,0,0,0,4.18-1.91C44.19,35.89,63.65,7.78,65.9,4.54c.36-.51.74-.23.4.26-2.17,3.14-21.74,31.41-24.67,34a7.25,7.25,0,0,1-4.46,2,6,6,0,0,1-4.71-1.73L14.82,22.17C14.28,21.65,14.61,21.3,15.17,21.84Z" transform="translate(-0.77 -0.98)"></path>
  <path class="cls-4" d="M17,24.28l16.57,16a5.18,5.18,0,0,0,4.55,1.47,7.76,7.76,0,0,0,4.3-2.3c2.83-2.58,20.84-28.57,23-31.62.37-.51.8-.19.45.31-2.06,3-20.17,29.09-23,31.69a8.2,8.2,0,0,1-4.54,2.4,5.56,5.56,0,0,1-5.07-1.58l-16.58-16C16,24.13,16.41,23.72,17,24.28Z" transform="translate(-0.77 -0.98)"></path>
  <path class="cls-5" d="M18.78,26.72,34.3,41.79a4.93,4.93,0,0,0,4.79,1.32,8.92,8.92,0,0,0,4.4-2.68C46.26,37.83,62.84,14,64.83,11.1c.36-.52.85-.17.48.35-1.94,2.78-18.6,26.78-21.39,29.39a9.54,9.54,0,0,1-4.64,2.79,5.35,5.35,0,0,1-5.43-1.45L18.33,27.11C17.8,26.6,18.21,26.15,18.78,26.72Z" transform="translate(-0.77 -0.98)"></path>
  <path class="cls-6" d="M20.59,29.16,35.05,43.3a4.74,4.74,0,0,0,5,1.19,10.6,10.6,0,0,0,4.52-3.07c2.71-2.61,17.84-24.38,19.7-27,.38-.52.91-.14.52.39-1.82,2.61-17,24.47-19.75,27.09A11.35,11.35,0,0,1,40.33,45a5.24,5.24,0,0,1-5.78-1.31L20.08,29.58C19.56,29.08,20,28.57,20.59,29.16Z" transform="translate(-0.77 -0.98)"></path>
  <path class="cls-7" d="M22.39,31.61,35.8,44.82a4.63,4.63,0,0,0,5.26,1,12.6,12.6,0,0,0,4.62-3.45C48.34,39.78,62,20.13,63.75,17.66c.39-.52,1-.11.57.44C62.61,20.52,48.87,40.25,46.2,42.88a13.69,13.69,0,0,1-4.81,3.57,5.2,5.2,0,0,1-6.14-1.17L21.84,32.05C21.32,31.55,21.82,31,22.39,31.61Z" transform="translate(-0.77 -0.98)"></path>
  <path class="cls-8" d="M24.2,34,36.55,46.33a4.59,4.59,0,0,0,5.5.91,15.36,15.36,0,0,0,4.73-3.84c2.6-2.65,14.84-20.19,16.44-22.46.38-.53,1-.08.6.49C62.23,23.66,50,41.26,47.34,43.9a16.57,16.57,0,0,1-4.9,4,5.21,5.21,0,0,1-6.49-1L23.6,34.52C23.08,34,23.61,33.42,24.2,34Z" transform="translate(-0.77 -0.98)"></path>
  <path class="cls-9" d="M26,36.48,37.3,47.85a4.56,4.56,0,0,0,5.73.76,18.59,18.59,0,0,0,4.84-4.23c2.54-2.66,13.34-18.08,14.81-20.16.39-.53,1.07,0,.64.53C61.85,26.81,51,42.27,48.49,44.92a20.38,20.38,0,0,1-5,4.34,5.24,5.24,0,0,1-6.84-.89L25.35,37C24.85,36.5,25.41,35.84,26,36.48Z" transform="translate(-0.77 -0.98)"></path>
  <path class="cls-10" d="M27.81,38.93,38,49.36A4.56,4.56,0,0,0,44,50a22.8,22.8,0,0,0,5-4.62c2.49-2.68,11.84-16,13.19-17.87.4-.53,1.12,0,.67.57C61.47,30,52.11,43.28,49.63,45.94a25.37,25.37,0,0,1-5.09,4.73,5.32,5.32,0,0,1-7.2-.75L27.1,39.46C26.61,39,27.21,38.27,27.81,38.93Z" transform="translate(-0.77 -0.98)"></path>
  <path class="cls-11" d="M29.62,41.37l9.17,9.51a4.62,4.62,0,0,0,6.21.49,29.76,29.76,0,0,0,5.06-5c2.43-2.7,10.33-13.89,11.55-15.58.4-.53,1.17,0,.71.62C61.09,33.1,53.19,44.29,50.77,47a33,33,0,0,1-5.18,5.12A5.41,5.41,0,0,1,38,51.47l-9.18-9.54C28.37,41.45,29,40.69,29.62,41.37Z" transform="translate(-0.77 -0.98)"></path>
  <path class="cls-12" d="M31.42,43.81l8.12,8.59a4.66,4.66,0,0,0,6.45.34,37.72,37.72,0,0,0,5.16-5.39c2.38-2.72,8.83-11.8,9.92-13.29a.5.5,0,1,1,.76.66C60.71,36.25,54.26,45.3,51.92,48a43.11,43.11,0,0,1-5.28,5.51,5.52,5.52,0,0,1-7.9-.48L30.62,44.4C30.13,43.93,30.82,43.12,31.42,43.81Z" transform="translate(-0.77 -0.98)"></path>
  <path class="cls-13" d="M33.23,46.25q3.52,3.82,7.06,7.66a4.72,4.72,0,0,0,6.68.21,49.26,49.26,0,0,0,5.27-5.78c2.32-2.73,7.34-9.7,8.3-11a.53.53,0,1,1,.79.71c-1,1.34-6,8.26-8.27,11a59.84,59.84,0,0,1-5.36,5.9,5.64,5.64,0,0,1-8.26-.34l-7.07-7.69C31.89,46.4,32.62,45.54,33.23,46.25Z" transform="translate(-0.77 -0.98)"></path>
  <path class="cls-14" d="M35,48.69l6,6.74A4.82,4.82,0,0,0,48,55.5a73.81,73.81,0,0,0,5.38-6.18c2.26-2.74,5.83-7.6,6.66-8.7.42-.54,1.34.1.83.76C60,42.54,56.42,47.32,54.2,50s-4.29,5.17-5.45,6.28a5.78,5.78,0,0,1-8.62-.19q-3-3.39-6-6.77A.56.56,0,1,1,35,48.69Z" transform="translate(-0.77 -0.98)"></path>
  <path class="cls-15" d="M36.84,51.13,41.78,57a4.88,4.88,0,0,0,7.16-.08c2-2,9.12-11.15,10.52-13,.43-.55,1.39.12.87.79-1.53,2-8.26,10.6-10.53,13a5.93,5.93,0,0,1-9-.06l-4.95-5.84C35.41,51.35,36.22,50.39,36.84,51.13Z" transform="translate(-0.77 -0.98)"></path>
  <path class="cls-1" d="M36.9,30.94a3.87,3.87,0,0,1,1.29,4.56,2.41,2.41,0,0,1-3.76,1,3.87,3.87,0,0,1-1.29-4.55A2.42,2.42,0,0,1,36.9,30.94Z" transform="translate(-0.77 -0.98)"></path>
  <path class="cls-16" d="M40.38,90.87a.31.31,0,1,1-.31.31A.31.31,0,0,1,40.38,90.87Z" transform="translate(-0.77 -0.98)"></path>
  <path class="cls-16" d="M93.76,84.29a.31.31,0,0,1,0,.62.31.31,0,1,1,0-.62Z" transform="translate(-0.77 -0.98)"></path>
  <path class="cls-16" d="M112.07,84.29a.31.31,0,1,1-.32.31A.31.31,0,0,1,112.07,84.29Z" transform="translate(-0.77 -0.98)"></path>
  <path class="cls-17" d="M1.91,98.5c.07-.39-.26-.55-.49-.11a8.39,8.39,0,0,0-.64,3,.62.62,0,1,0,1.24.07,21,21,0,0,1-.11-3Zm1.72,0c.07-.39-.26-.55-.5-.11a8.39,8.39,0,0,0-.63,3,.62.62,0,1,0,1.23.07A22.66,22.66,0,0,1,3.63,98.5Z" transform="translate(-0.77 -0.98)"></path>
  <path class="cls-17" d="M10.66,104.88a.35.35,0,0,0-.62.05,1.46,1.46,0,0,0,0,.55c0,.22,0,.43,0,.64a4.34,4.34,0,0,1-.29,1.35,2,2,0,0,1-1.24,1.22,1.7,1.7,0,0,1-1.39-.31c-1-.75-1.27-2.31-1.38-3.51A11,11,0,0,1,6,100.7a3.31,3.31,0,0,1,1-1.58,1.81,1.81,0,0,1,1.79-.26,1.36,1.36,0,0,1,.51.44,3,3,0,0,1-.15,3c-.22.43-.55.78-.76,1.22a1,1,0,0,0-.15.49.35.35,0,0,0,.38.31c1.1-.12,1.7-1.55,1.87-2.51a3.45,3.45,0,0,0-.79-3,2.45,2.45,0,0,0-3.08-.15,4.91,4.91,0,0,0-1.78,2.67,7.93,7.93,0,0,0-.19,4.13,5.35,5.35,0,0,0,1.94,3.28,2.35,2.35,0,0,0,3.13-.31,3.79,3.79,0,0,0,.89-1.72,4.41,4.41,0,0,0,.15-1A1.7,1.7,0,0,0,10.66,104.88Z" transform="translate(-0.77 -0.98)"></path>
  <path class="cls-17" d="M17.24,105.06a4.58,4.58,0,0,0-1.1-3.25,2.41,2.41,0,0,0-2.8-.38c-1.15.61-1.56,2.14-1.6,3.37a4.88,4.88,0,0,0,1,3.4,2.45,2.45,0,0,0,3.11.37A3.2,3.2,0,0,0,17,106.91,2.09,2.09,0,0,0,18.81,105c0-.47-.37-.4-.42,0a1.73,1.73,0,0,1-1.29,1.5,7.14,7.14,0,0,0,.14-1.36Zm-2.42-3.39c1.12.23,1.22,1.56,1.22,2.64a2.63,2.63,0,0,0,0,2.11c-.08,1-.38,2.08-1.56,2-1.48,0-1.52-1.72-1.52-2.84,0-.65,0-1.3,0-1.94a2.41,2.41,0,0,1,.64-1.75A1.46,1.46,0,0,1,14.82,101.67Z" transform="translate(-0.77 -0.98)"></path>
  <path class="cls-17" d="M19.1,101.15a.66.66,0,0,0-.69,0c-.29.17-.26.47-.26.76s0,.76,0,1.12c0,.7,0,1.4,0,2.08,0,1.1.08,2.2.17,3.28,0,.26,0,.68.39.67s.31-.27.33-.49c0-.51.08-1,.12-1.56.05-.85.08-1.71.1-2.56a.69.69,0,0,0,0-.2,7.05,7.05,0,0,1,.57-1.93c.23-.42.64-.84,1.12-.54s.45,1.17.48,1.67c.05.84,0,1.68.07,2.52l.1,1.9,0,.61a.66.66,0,0,0,.16.54.39.39,0,0,0,.57,0c.17-.23.11-.7.13-1s0-.48,0-.73l0-1.36c0-.52,0-1.08,0-1.62a11.81,11.81,0,0,1,.36-1.45c.14-.42.41-1.15.95-1.19s.75.51.84,1a12.12,12.12,0,0,1,0,2.41,10.27,10.27,0,0,0,.09,1.75c.1.71.41,2.49,1.55,2.18s1.34-1.78,1.27-4c0-.47-.41-.4-.41-.06,0,2.43-.31,3.62-1,3.55-.37,0-.26-1-.26-1.48a21,21,0,0,0-.17-3.55c-.19-1.06-.75-2.63-2.11-2.34-.62.14-.95.79-1.15,1.33l-.16.46c-.25-1-.91-2.05-2-1.77a1.77,1.77,0,0,0-1.09,1.21v-.25C19.35,101.74,19.42,101.34,19.1,101.15Z" transform="translate(-0.77 -0.98)"></path>
  <path class="cls-17" d="M28.05,101.15a.66.66,0,0,0-.69,0c-.29.17-.26.47-.26.76s0,.76,0,1.12c0,.7,0,1.4,0,2.08,0,1.1.08,2.2.17,3.28,0,.26,0,.68.4.67s.3-.27.32-.49q.07-.76.12-1.56c0-.85.09-1.71.1-2.56a.71.71,0,0,0,0-.2,7,7,0,0,1,.56-1.93c.23-.42.64-.84,1.12-.54s.45,1.17.49,1.67c.05.84,0,1.68.06,2.52l.11,1.9.05.61a.69.69,0,0,0,.15.54.39.39,0,0,0,.57,0c.17-.23.12-.7.14-1s0-.48,0-.73l0-1.36c0-.52,0-1.08,0-1.62a10.27,10.27,0,0,1,.37-1.45c.13-.42.41-1.15.94-1.19s.76.51.84,1a12.93,12.93,0,0,1,0,2.41,10.26,10.26,0,0,0,.08,1.75c.1.71.42,2.49,1.55,2.18s1.34-1.78,1.27-4c0-.47-.41-.4-.41-.06,0,2.43-.31,3.62-1,3.55-.37,0-.25-1-.25-1.48a22.05,22.05,0,0,0-.18-3.55c-.18-1.06-.75-2.63-2.11-2.34-.62.14-.94.79-1.15,1.33l-.15.46c-.26-1-.91-2.05-2.05-1.77a1.74,1.74,0,0,0-1.08,1.21v-.25C28.31,101.74,28.38,101.34,28.05,101.15Z" transform="translate(-0.77 -0.98)"></path>
  <path class="cls-17" d="M37.09,101.2a.69.69,0,0,0-.64,0c-.34.18-.31.58-.32.91,0,.51-.07,1-.07,1.52a19.31,19.31,0,0,0,.17,3,4.79,4.79,0,0,0,.55,1.79,1,1,0,0,0,1,.56c1.3-.12,1.58-2,1.58-4,0-.47-.42-.4-.42-.06,0,2.17-.53,3.55-1.18,3.55-.29,0-.34-.54-.39-1s0-.93,0-1.38,0-1.19,0-1.78,0-1.15,0-1.71c0-.33,0-.64,0-1a.49.49,0,0,0-.26-.47Zm-.33-1.52a.67.67,0,0,0,.67-.54l0-.1a.69.69,0,0,0-1.34-.32l0,.11A.71.71,0,0,0,36.76,99.68Z" transform="translate(-0.77 -0.98)"></path>
  <path class="cls-17" d="M38,100.52c-.46,0-.46.33-.08.33.08,0,.41,0,.81.05,0,1,0,1.91,0,2.85,0,2.3-.05,5.27,2.3,5.27.85,0,1.34-.75,1.6-1.64a2,2,0,0,0,2,1.64c1.67,0,1.94-2.9,1.91-4,0-.47-.41-.4-.41-.06,0,2.45-.81,3.55-1.48,3.55-.48,0-.89-.33-1-1.22-.08-.63-.08-1.29-.1-1.92,0-1,0-1.94.05-2.92,0-.49,0-1,0-1.48a8.16,8.16,0,0,0,1-.19c2.08-.56,1.15-1.33-.38-1l-.55.14c0-.3,0-.58,0-.87v-.91c0-.3.07-.61-.26-.77a.73.73,0,0,0-.63,0c-.35.13-.31.49-.33.81q-.07.91-.12,1.83c0,.07,0,.16,0,.23-.65.1-1.39.19-2.28.26l0-1.41v-.91c0-.3.07-.61-.26-.77a.73.73,0,0,0-.63,0c-.35.13-.31.49-.33.81q-.07.91-.12,1.83a4.78,4.78,0,0,0,0,.54Zm4.37,3.23a22,22,0,0,0,.08,2.56c-.22,1.49-.84,2.17-1.37,2.17s-.89-.33-1-1.22a17.65,17.65,0,0,1-.11-1.92c0-1,0-1.94.05-2.92,0-.47,0-1,0-1.43.7,0,1.51.05,2.29,0C42.32,101.93,42.35,102.84,42.35,103.75Z" transform="translate(-0.77 -0.98)"></path>
  <path class="cls-17" d="M49.29,109c1.91,0,3.06-1.93,3.06-4,0-.47-.41-.4-.41,0,0,2-1.21,3.56-2.63,3.56-1.77,0-2.15-1.28-2.2-2.9.26,0,.5,0,.74,0a3.28,3.28,0,0,0,1.89-.41,2.4,2.4,0,0,0,1-1.54,2.07,2.07,0,0,0-2-2.52,2.87,2.87,0,0,0-2.53,2,5.44,5.44,0,0,0,0,4.1,3,3,0,0,0,3,1.76Zm-1.82-3.82a3.1,3.1,0,0,1-.38-.07V105a5.25,5.25,0,0,1,.53-2.79c.35-.53,1.21-.93,1.72-.39a2.4,2.4,0,0,1,.28,1.86,1.79,1.79,0,0,1-1.14,1.34A2.49,2.49,0,0,1,47.47,105.18Z" transform="translate(-0.77 -0.98)"></path>
  <path class="cls-17" d="M57.42,97.4a.79.79,0,0,0-.64-.06c-.32.11-.3.41-.34.7-.07.59-.14,1.19-.19,1.78s-.09,1.27-.12,1.9l-.14-.1a2.28,2.28,0,0,0-1.32-.51,2.54,2.54,0,0,0-2.1,1.3,5.67,5.67,0,0,0-.82,4c.21,1.17.91,2.56,2.21,2.65s1.83-1.4,2.12-2.39a4.41,4.41,0,0,0,.14-.47c-.09,1.17.36,2.79,1.66,2.83,1.57,0,1.33-3.55,1.33-4s-.42-.4-.42,0c0,.9,0,3.47-.87,3.59-.5.07-.55-.64-.62-1.24a12.85,12.85,0,0,1-.06-2c0-1,.09-1.94.16-2.91s.16-2.22.21-3.33c0-.3,0-.58,0-.88s.1-.61-.22-.78Zm-1.32,6.07c0,.28,0,.56,0,.84l-.06.43a10.7,10.7,0,0,1-.45,2,3,3,0,0,1-1,1.6,1,1,0,0,1-1.2-.25,3,3,0,0,1-.5-1.76,10.65,10.65,0,0,1,.1-2,4.93,4.93,0,0,1,.59-1.87,1.42,1.42,0,0,1,1.12-.77,1.68,1.68,0,0,1,1.42.79C56.1,102.79,56.1,103.12,56.1,103.47Z" transform="translate(-0.77 -0.98)"></path>
  <path class="cls-17" d="M62.25,100.57c-.29,0-.29.37-.06.37l1,.1c0,.91,0,1.82,0,2.71,0,2.3-.05,5.27,2.31,5.27,1.66,0,1.94-2.9,1.91-4,0-.47-.42-.4-.42-.06,0,2.45-.8,3.55-1.48,3.55-.48,0-.89-.33-1-1.22-.08-.63-.08-1.29-.1-1.92,0-1,0-1.94.05-2.92,0-.43,0-.87,0-1.31a4.89,4.89,0,0,0,1.94-.29c1.3-.6.72-1.4-.24-1a11.28,11.28,0,0,1-1.67.55l0-1.3v-.91c0-.3.07-.61-.25-.77a.75.75,0,0,0-.64,0c-.34.13-.31.49-.32.81-.06.61-.09,1.22-.13,1.83,0,.19,0,.38,0,.56C62.88,100.56,62.57,100.57,62.25,100.57Z" transform="translate(-0.77 -0.98)"></path>
  <path class="cls-17" d="M72.23,105.06a4.58,4.58,0,0,0-1.1-3.25,2.41,2.41,0,0,0-2.8-.38c-1.15.61-1.56,2.14-1.6,3.37a4.88,4.88,0,0,0,1,3.4,2.45,2.45,0,0,0,3.11.37A3.2,3.2,0,0,0,72,106.91,2.09,2.09,0,0,0,73.8,105c0-.47-.36-.4-.42,0a1.74,1.74,0,0,1-1.29,1.5,7.14,7.14,0,0,0,.14-1.36Zm-2.42-3.39c1.11.23,1.22,1.56,1.22,2.64a2.67,2.67,0,0,0,0,2.11c-.09,1-.38,2.08-1.56,2-1.48,0-1.51-1.72-1.51-2.84,0-.65,0-1.3,0-1.94a2.41,2.41,0,0,1,.64-1.75A1.48,1.48,0,0,1,69.81,101.67Z" transform="translate(-0.77 -0.98)"></path>
  <path class="cls-17" d="M81.1,109c1.91,0,3.06-1.93,3.06-4,0-.47-.42-.4-.42,0,0,2-1.2,3.56-2.62,3.56-1.77,0-2.15-1.28-2.2-2.9.25,0,.49,0,.73,0a3.3,3.3,0,0,0,1.9-.41,2.4,2.4,0,0,0,1-1.54,2.08,2.08,0,0,0-2-2.52,2.86,2.86,0,0,0-2.53,2,5.44,5.44,0,0,0,0,4.1,3,3,0,0,0,3,1.76Zm-1.82-3.82a2.79,2.79,0,0,1-.38-.07V105a5.25,5.25,0,0,1,.53-2.79c.35-.53,1.21-.93,1.72-.39a2.36,2.36,0,0,1,.27,1.86,1.76,1.76,0,0,1-1.13,1.34A2.49,2.49,0,0,1,79.28,105.18Z" transform="translate(-0.77 -0.98)"></path>
  <path class="cls-17" d="M84.43,101.15a.66.66,0,0,0-.69,0c-.29.17-.25.47-.25.76s0,.76,0,1.12c0,.7,0,1.4,0,2.08,0,1.1.08,2.2.17,3.28,0,.26,0,.68.39.67s.32-.27.33-.49q.07-.76.12-1.56c0-.85.09-1.71.1-2.56a.71.71,0,0,0,0-.2,6.72,6.72,0,0,1,.57-1.93c.22-.42.63-.84,1.11-.54s.45,1.17.48,1.67c.05.84,0,1.68.07,2.52l.11,1.9,0,.61a.69.69,0,0,0,.15.54.39.39,0,0,0,.57,0c.17-.23.12-.7.14-1s0-.48,0-.73l0-1.36c0-.52,0-1.08,0-1.62a9,9,0,0,1,.36-1.45c.14-.42.41-1.15.94-1.19s.76.51.84,1a12.12,12.12,0,0,1,0,2.41,9.34,9.34,0,0,0,.09,1.75c.1.71.41,2.49,1.54,2.18s1.34-1.78,1.27-4c0-.47-.41-.4-.41-.06,0,2.43-.31,3.62-1,3.55-.38,0-.26-1-.26-1.48a23.27,23.27,0,0,0-.17-3.55c-.19-1.06-.76-2.63-2.12-2.34-.61.14-.94.79-1.15,1.33l-.15.46c-.26-1-.92-2.05-2-1.77a1.78,1.78,0,0,0-1.08,1.21v-.25C84.69,101.74,84.76,101.34,84.43,101.15Z" transform="translate(-0.77 -0.98)"></path>
  <path class="cls-17" d="M97.8,105.06c0-1.38-.41-3.42-1.94-3.84a1.78,1.78,0,0,0-1.7.37,2.32,2.32,0,0,0-.52.73v-.14c0-.37,0-.77-.25-1a.5.5,0,0,0-.68,0,1.33,1.33,0,0,0-.27,1.08c0,.49,0,1,0,1.49,0,1,0,1.93,0,2.91,0,1.59.07,3.19.16,4.78l0,.7c0,.28,0,.82.5.63.26-.11.21-.46.22-.7s0-.45,0-.68c0-1.22.1-2.48.13-3.72a2,2,0,0,0,1.08,1.2,1.94,1.94,0,0,0,1.83-.26,3.21,3.21,0,0,0,1.07-1.67A2.1,2.1,0,0,0,99.37,105c0-.47-.37-.4-.42,0a1.73,1.73,0,0,1-1.29,1.5,5.93,5.93,0,0,0,.14-1.36ZM96.49,103a8.92,8.92,0,0,1,.11,1.25,2.57,2.57,0,0,0,0,2.31v.07a2.17,2.17,0,0,1-.66,1.62,1.23,1.23,0,0,1-1.56-.14,2.86,2.86,0,0,1-.69-1.76l0-.3c0-.75,0-1.51,0-2.26.16-1.09.62-2.43,1.91-2.1A1.42,1.42,0,0,1,96.49,103Z" transform="translate(-0.77 -0.98)"></path>
  <path class="cls-17" d="M104.21,105.06a4.58,4.58,0,0,0-1.1-3.25,2.41,2.41,0,0,0-2.8-.38c-1.15.61-1.57,2.14-1.6,3.37a4.88,4.88,0,0,0,1,3.4,2.45,2.45,0,0,0,3.11.37,3.2,3.2,0,0,0,1.14-1.66,2.09,2.09,0,0,0,1.84-1.94c0-.47-.37-.4-.42,0a1.73,1.73,0,0,1-1.29,1.5,7.14,7.14,0,0,0,.14-1.36Zm-2.42-3.39c1.11.23,1.22,1.56,1.22,2.64a2.67,2.67,0,0,0,0,2.11c-.09,1-.38,2.08-1.56,2-1.48,0-1.51-1.72-1.51-2.84,0-.65,0-1.3,0-1.94a2.41,2.41,0,0,1,.64-1.75A1.47,1.47,0,0,1,101.79,101.67Z" transform="translate(-0.77 -0.98)"></path>
  <path class="cls-17" d="M111.7,106.93a2.09,2.09,0,0,0,2.12-2c0-.47-.36-.4-.42,0a1.67,1.67,0,0,1-1.68,1.53h-.08c.08-.42.15-.85.2-1.29.1-.71.15-1.43.19-2.14V102a1,1,0,0,0-.21-.75.52.52,0,0,0-.77,0c-.32.35-.24,1-.26,1.43l-.05,1.82a1.48,1.48,0,0,0-.15,2v.07c0,.34-.09.67-.14,1s-.17.89-.53.94a.32.32,0,0,1-.23-.07c-.43-.3-.53-1.06-.6-1.53a17.15,17.15,0,0,1-.12-2c0-.24,0-.49,0-.73s.06-.7.1-1,0-.73,0-1.1a1,1,0,0,0-.22-.75.53.53,0,0,0-.78,0,1.06,1.06,0,0,0-.22.82,8.34,8.34,0,0,0,0,1c0,.66,0,1.3,0,2a15,15,0,0,1-.17,2,3.8,3.8,0,0,1-.24.91c-.09.21-.22.54-.48.54a.15.15,0,0,1-.11,0c-.32-.18-.37-.79-.43-1.12l-.13-1.43c0-.61-.07-1.21-.1-1.82l0-1.53c0-.26,0-.54,0-.81a.67.67,0,0,0-.14-.48.58.58,0,0,0-.88-.09,1.15,1.15,0,0,0-.2.85c0,.39,0,.75,0,1.12,0,.72,0,1.43.14,2.13a9.45,9.45,0,0,0,.41,2c.26.79,1.09,2.5,2.1,1.57a3.28,3.28,0,0,0,.77-1.52c.09-.27.16-.55.23-.85,0,.19,0,.38.08.58a3.22,3.22,0,0,0,.64,1.76.83.83,0,0,0,1.22,0,3.35,3.35,0,0,0,.92-1.64l.07-.24A.62.62,0,0,0,111.7,106.93Z" transform="translate(-0.77 -0.98)"></path>
  <path class="cls-17" d="M116.55,109c1.91,0,3.06-1.93,3.06-4,0-.47-.41-.4-.41,0,0,2-1.21,3.56-2.63,3.56-1.77,0-2.15-1.28-2.2-2.9.25,0,.5,0,.74,0a3.23,3.23,0,0,0,1.88-.41,2.38,2.38,0,0,0,1-1.54,2.08,2.08,0,0,0-2-2.52,2.87,2.87,0,0,0-2.53,2,5.39,5.39,0,0,0,0,4.1,3,3,0,0,0,3,1.76Zm-1.82-3.82a3.1,3.1,0,0,1-.38-.07V105a5.25,5.25,0,0,1,.53-2.79c.35-.53,1.2-.93,1.72-.39a2.45,2.45,0,0,1,.28,1.86,1.79,1.79,0,0,1-1.14,1.34A2.47,2.47,0,0,1,114.73,105.18Z" transform="translate(-0.77 -0.98)"></path>
  <path class="cls-17" d="M119.18,104.93c0,.41.41.44.41.06s0-1.19,0-1.7a1.7,1.7,0,0,0,.47.11.75.75,0,0,0,.67-.16c-.11,1.54-.21,3.84.67,5.2a1,1,0,0,0,1,.56c1.3-.12,1.58-2,1.58-4,0-.47-.41-.4-.41-.06,0,2.17-.42,3.55-1.19,3.55-.29,0-.34-.54-.4-1s0-3,0-4c0-.33,0-.64,0-1a.48.48,0,0,0-.26-.47.69.69,0,0,0-.64,0,.54.54,0,0,0-.24.26c-.17.4-.19.72-.65.62-.67-.16-.47-.37-.47-1.93a.48.48,0,0,0-.25-.47.69.69,0,0,0-.64,0c-.34.17-.31.57-.32.9a1.67,1.67,0,0,0,.72,1.64C119.21,103.57,119.18,104.52,119.18,104.93Z" transform="translate(-0.77 -0.98)"></path>
  <path class="cls-17" d="M124.37,101.2a.69.69,0,0,0-.64,0c-.34.18-.31.58-.33.91,0,.51-.06,1-.06,1.52a19.31,19.31,0,0,0,.17,3,4.79,4.79,0,0,0,.55,1.79,1,1,0,0,0,1,.56c1.3-.12,1.58-2,1.58-4,0-.47-.41-.4-.41-.06,0,2.17-.54,3.55-1.19,3.55-.3,0-.35-.54-.4-1s0-.93,0-1.38,0-1.19,0-1.78,0-1.15,0-1.71c0-.33,0-.64,0-1a.49.49,0,0,0-.26-.47ZM124,99.68a.68.68,0,0,0,.67-.54l0-.1a.69.69,0,0,0-1.34-.32l0,.11A.71.71,0,0,0,124,99.68Z" transform="translate(-0.77 -0.98)"></path>
  <path class="cls-17" d="M126.23,108.69a.17.17,0,0,0,0,.15.27.27,0,0,0,.3.22c.28,0,.31-.27.35-.49L127,107c0-1,.11-2,.12-3,0-.11.06-.21.09-.32a3.91,3.91,0,0,1,.84-1.69,1.12,1.12,0,0,1,1.31-.14c.53.33.58,1.12.62,1.69,0,.88-.06,1.77,0,2.66s.21,3.17,1.63,3,1.57-1.94,1.48-4.22c0-.47-.41-.4-.41-.06,0,2.45-.28,3.78-1.14,3.78-.43,0-.37-1.64-.37-2.34a11.26,11.26,0,0,0-.43-3.83,2.2,2.2,0,0,0-1.14-1.32,1.92,1.92,0,0,0-1.49,0,2.33,2.33,0,0,0-1,1.16v-.32c0-.35.09-.75-.26-.94a.62.62,0,0,0-.67,0c-.29.17-.27.47-.27.76s0,.76,0,1.12c0,.7,0,1.4,0,2.08,0,1.1.07,2.2.18,3.28a1.18,1.18,0,0,1,0,.26Z" transform="translate(-0.77 -0.98)"></path>
  <path class="cls-17" d="M137.76,101.34a.62.62,0,0,0-.85.26l0,.07-.07,0a2.3,2.3,0,0,0-1.32-.51,2.5,2.5,0,0,0-2.1,1.3,5.62,5.62,0,0,0-.82,4c.18,1.17.91,2.56,2.21,2.65s1.82-1.39,2.12-2.39a1,1,0,0,0,.06-.23v.21c0,.72,0,1.45,0,2.18a4.23,4.23,0,0,1-1.34.39c-3.22.48-3.8,3.14-1.17,3.42,2.2.22,3.09-1.83,3.47-3.83a4.89,4.89,0,0,0,1.87-3.78c0-.47-.41-.4-.41-.06A4.26,4.26,0,0,1,138,108c.07-.49.1-1,.14-1.4,0-.75.05-1.5.05-2.25s-.05-1.34-.12-2c0-.35,0-.77-.34-1Zm-2.26.31a1.71,1.71,0,0,1,1.36.69l0,2s0,.05,0,.07l0,.29a9.32,9.32,0,0,1-.45,2,3.15,3.15,0,0,1-1,1.6.93.93,0,0,1-1.2-.25,2.9,2.9,0,0,1-.5-1.76,10.65,10.65,0,0,1,.1-2,5.08,5.08,0,0,1,.57-1.87,1.49,1.49,0,0,1,1.13-.77Zm.09,8c.43-.09.94-.21,1.31-.31a6.52,6.52,0,0,1-.32,1.32,1.85,1.85,0,0,1-1.14,1.31C133.53,112.53,133.24,110.17,135.59,109.7Z" transform="translate(-0.77 -0.98)"></path>
  <path class="cls-17" d="M147,109c2.2,0,3.11-2,3.11-4,0-.47-.41-.4-.41,0,0,1.76-.91,3.58-2.78,3.58a2.13,2.13,0,0,1-1.79-1.47,8.74,8.74,0,0,1-.09-3.53,2.56,2.56,0,0,1,.66-1.5,1.2,1.2,0,0,1,1.32-.26.72.72,0,0,1,.34.28c.49.63.11,1.59-.27,2.16a2,2,0,0,0-.47.91.4.4,0,0,0,.35.49,1.33,1.33,0,0,0,1.1-.77,3.1,3.1,0,0,0,.41-1.6,2,2,0,0,0-2.08-2.08c-1.32.11-2.18,1.4-2.51,2.59a5.11,5.11,0,0,0,.48,3.85A3.32,3.32,0,0,0,147,109Z" transform="translate(-0.77 -0.98)"></path>
  <path class="cls-17" d="M154.92,105.06a4.58,4.58,0,0,0-1.1-3.25,2.41,2.41,0,0,0-2.8-.38c-1.15.61-1.56,2.14-1.6,3.37a4.88,4.88,0,0,0,1,3.4,2.45,2.45,0,0,0,3.11.37,3.2,3.2,0,0,0,1.14-1.66,2.09,2.09,0,0,0,1.84-1.94c0-.47-.37-.4-.42,0a1.73,1.73,0,0,1-1.29,1.5,7.14,7.14,0,0,0,.14-1.36Zm-2.42-3.39c1.12.23,1.22,1.56,1.22,2.64a2.67,2.67,0,0,0,0,2.11c-.08,1-.38,2.08-1.56,2-1.48,0-1.51-1.72-1.51-2.84,0-.65,0-1.3,0-1.94a2.41,2.41,0,0,1,.64-1.75A1.47,1.47,0,0,1,152.5,101.67Z" transform="translate(-0.77 -0.98)"></path>
  <path class="cls-17" d="M156.78,101.15a.66.66,0,0,0-.69,0c-.29.17-.26.47-.26.76s0,.76,0,1.12c0,.7,0,1.4,0,2.08,0,1.1.08,2.2.17,3.28,0,.26,0,.68.39.67s.31-.27.33-.49c.05-.51.08-1,.12-1.56,0-.85.08-1.71.1-2.56a.69.69,0,0,0,0-.2,6.72,6.72,0,0,1,.57-1.93c.23-.42.64-.84,1.12-.54s.45,1.17.48,1.67c.05.84,0,1.68.07,2.52l.1,1.9,0,.61a.66.66,0,0,0,.16.54.39.39,0,0,0,.57,0,2,2,0,0,0,.13-1c0-.24,0-.48,0-.73l0-1.36c0-.52,0-1.08,0-1.62a11.81,11.81,0,0,1,.36-1.45c.14-.42.41-1.15.95-1.19s.75.51.84,1a12.12,12.12,0,0,1,0,2.41,10.27,10.27,0,0,0,.09,1.75c.11.71.41,2.49,1.55,2.18s1.34-1.78,1.27-4c0-.47-.41-.4-.41-.06,0,2.43-.31,3.62-1,3.55-.37,0-.25-1-.25-1.48a22.05,22.05,0,0,0-.18-3.55c-.19-1.06-.75-2.63-2.11-2.34-.62.14-.94.79-1.15,1.33l-.16.46c-.26-1-.91-2.05-2-1.77a1.77,1.77,0,0,0-1.09,1.21v-.25C157,101.74,157.1,101.34,156.78,101.15Z" transform="translate(-0.77 -0.98)"></path>
  <path class="cls-17" d="M165.73,101.15a.66.66,0,0,0-.69,0c-.29.17-.25.47-.25.76s0,.76,0,1.12c0,.7,0,1.4,0,2.08,0,1.1.08,2.2.17,3.28,0,.26,0,.68.39.67s.31-.27.33-.49q.08-.76.12-1.56c.05-.85.09-1.71.11-2.56a1.38,1.38,0,0,0,0-.2,6.42,6.42,0,0,1,.57-1.93c.22-.42.63-.84,1.11-.54s.45,1.17.48,1.67c.06.84,0,1.68.07,2.52l.11,1.9,0,.61a.69.69,0,0,0,.15.54.39.39,0,0,0,.57,0c.17-.23.12-.7.14-1s0-.48,0-.73l0-1.36c0-.52,0-1.08,0-1.62a10.27,10.27,0,0,1,.37-1.45c.13-.42.41-1.15.94-1.19s.76.51.84,1a12.12,12.12,0,0,1,0,2.41,10.26,10.26,0,0,0,.08,1.75c.11.71.42,2.49,1.55,2.18s1.34-1.78,1.27-4c0-.47-.41-.4-.41-.06,0,2.43-.31,3.62-1,3.55-.38,0-.26-1-.26-1.48a23.27,23.27,0,0,0-.17-3.55c-.19-1.06-.76-2.63-2.12-2.34-.62.14-.94.79-1.15,1.33l-.15.46c-.26-1-.91-2.05-2.05-1.77a1.74,1.74,0,0,0-1.08,1.21v-.25C166,101.74,166.06,101.34,165.73,101.15Z" transform="translate(-0.77 -0.98)"></path>
  <path class="cls-17" d="M178.48,101.2a.67.67,0,0,0-.63,0c-.35.18-.31.58-.33.91,0,.51-.07,1-.07,1.52a16.53,16.53,0,0,0,.07,2.11,7.59,7.59,0,0,1-.35,1.9c-.17.44-.44.82-.94.82-1.36,0-1.22-1.88-1.2-2.84s0-1.88,0-2.83l0-1.08a.66.66,0,0,0-.41-.66.56.56,0,0,0-.64.17,1.28,1.28,0,0,0-.17.86l0,1.22c0,1.88-.3,6,2.54,5.74.87-.07,1.27-.8,1.46-1.64a3.39,3.39,0,0,0,.41,1.06,1,1,0,0,0,1,.56c1.31-.12,1.58-2,1.58-4,0-.47-.41-.4-.41-.06,0,2.17-.54,3.55-1.19,3.55-.29,0-.34-.54-.39-1s0-.93,0-1.38,0-1.19,0-1.78,0-1.15,0-1.71c0-.33,0-.64,0-1A.49.49,0,0,0,178.48,101.2Z" transform="translate(-0.77 -0.98)"></path>
  <path class="cls-17" d="M180.34,108.69a.17.17,0,0,0,0,.15.28.28,0,0,0,.31.22c.28,0,.31-.27.34-.49l.11-1.56c0-1,.1-2,.11-3,0-.11.06-.21.09-.32a3.8,3.8,0,0,1,.84-1.69,1.12,1.12,0,0,1,1.31-.14c.53.33.58,1.12.62,1.69,0,.88-.05,1.77,0,2.66s.2,3.17,1.63,3,1.56-1.94,1.47-4.22c0-.47-.41-.4-.41-.06,0,2.45-.27,3.78-1.13,3.78-.43,0-.38-1.64-.38-2.34a11,11,0,0,0-.43-3.83,2.18,2.18,0,0,0-1.13-1.32,2,2,0,0,0-1.5,0,2.33,2.33,0,0,0-1,1.16v-.32c0-.35.09-.75-.25-.94a.64.64,0,0,0-.68,0c-.29.17-.27.47-.27.76s0,.76,0,1.12c0,.7,0,1.4.05,2.08,0,1.1.07,2.2.17,3.28a1.18,1.18,0,0,1,0,.26Z" transform="translate(-0.77 -0.98)"></path>
  <path class="cls-17" d="M187.64,101.2a.67.67,0,0,0-.63,0c-.35.18-.32.58-.33.91,0,.51-.07,1-.07,1.52a19.31,19.31,0,0,0,.17,3,5.19,5.19,0,0,0,.55,1.79,1,1,0,0,0,1,.56c1.31-.12,1.58-2,1.58-4,0-.47-.41-.4-.41-.06,0,2.17-.54,3.55-1.19,3.55-.29,0-.34-.54-.39-1s0-.93,0-1.38,0-1.19,0-1.78,0-1.15,0-1.71c0-.33,0-.64,0-1a.49.49,0,0,0-.26-.47Zm-.32-1.52a.67.67,0,0,0,.66-.54l0-.1a.69.69,0,0,0-1.34-.32l0,.11A.72.72,0,0,0,187.32,99.68Z" transform="translate(-0.77 -0.98)"></path>
  <path class="cls-17" d="M188.36,100.57c-.29,0-.29.37-.05.37l.95.1c0,.91,0,1.82,0,2.71,0,2.3,0,5.27,2.3,5.27,1.67,0,1.94-2.9,1.91-4,0-.47-.41-.4-.41-.06,0,2.45-.81,3.55-1.48,3.55-.48,0-.89-.33-1-1.22a17.65,17.65,0,0,1-.11-1.92c0-1,0-1.94.06-2.92,0-.43,0-.87,0-1.31a4.84,4.84,0,0,0,1.94-.29c1.31-.6.73-1.4-.24-1a11.13,11.13,0,0,1-1.66.55l0-1.3v-.91c0-.3.07-.61-.26-.77a.73.73,0,0,0-.63,0c-.35.13-.31.49-.33.81,0,.61-.08,1.22-.12,1.83a5.33,5.33,0,0,0,0,.56C189,100.56,188.69,100.57,188.36,100.57Z" transform="translate(-0.77 -0.98)"></path>
  <path class="cls-17" d="M193.88,101.2a.69.69,0,0,0-.64,0c-.34.18-.31.58-.32.91,0,.51-.07,1-.07,1.52a19.31,19.31,0,0,0,.17,3,4.79,4.79,0,0,0,.55,1.79,1,1,0,0,0,1,.56c1.3-.12,1.58-2,1.58-4,0-.47-.42-.4-.42-.06,0,2.17-.53,3.55-1.18,3.55-.29,0-.34-.54-.4-1s0-.93,0-1.38,0-1.19,0-1.78,0-1.15,0-1.71c0-.33,0-.64,0-1a.49.49,0,0,0-.26-.47Zm-.33-1.52a.68.68,0,0,0,.67-.54l0-.1a.69.69,0,0,0-1.34-.32l0,.11A.71.71,0,0,0,193.55,99.68Z" transform="translate(-0.77 -0.98)"></path>
  <path class="cls-17" d="M198.86,109c1.91,0,3.06-1.93,3.06-4,0-.47-.41-.4-.41,0,0,2-1.2,3.56-2.63,3.56-1.77,0-2.15-1.28-2.2-2.9.26,0,.5,0,.74,0a3.28,3.28,0,0,0,1.89-.41,2.4,2.4,0,0,0,1-1.54,2.07,2.07,0,0,0-2-2.52,2.87,2.87,0,0,0-2.53,2,5.39,5.39,0,0,0,0,4.1,3,3,0,0,0,3,1.76ZM197,105.18a3.1,3.1,0,0,1-.38-.07V105a5.25,5.25,0,0,1,.53-2.79c.35-.53,1.21-.93,1.72-.39a2.4,2.4,0,0,1,.28,1.86,1.79,1.79,0,0,1-1.14,1.34A2.45,2.45,0,0,1,197,105.18Z" transform="translate(-0.77 -0.98)"></path>
  <path class="cls-17" d="M203.47,101.25c0-1.06-1,.13-1,1,0,2,2.51,3.58,2.18,5.35-.24,1.27-1.84,1.53-2.46-.18a4.76,4.76,0,0,1,.18-2c.27-1.39-1.14-1.51-1.14.23a4,4,0,0,0,1.14,2.9c1,.92,2.44.59,3.09-1C206.32,105.65,203.47,103.28,203.47,101.25Z" transform="translate(-0.77 -0.98)"></path>
  <path class="cls-17" d="M206.13,101.74c-.07.39.26.54.5.11a8.44,8.44,0,0,0,.63-3,.62.62,0,1,0-1.23-.07,22.6,22.6,0,0,1,.1,3Zm1.72,0c-.07.39.26.54.5.11a8.66,8.66,0,0,0,.63-3,.62.62,0,1,0-1.24-.07A21,21,0,0,1,207.85,101.74Z" transform="translate(-0.77 -0.98)"></path>
</svg>
